<svg viewBox="0 0 960 170" width="960" height="170" xmlns="http://www.w3.org/2000/svg" xmlns:xlink="http://www.w3.org/1999/xlink" version="1.1"><rect x="0" y="0" width="960" height="170" fill="#312e81"></rect><path d="M0 94L22.8 91.5C45.7 89 91.3 84 137 95.7C182.7 107.3 228.3 135.7 274 146.3C319.7 157 365.3 150 411.2 144C457 138 503 133 548.8 139.2C594.7 145.3 640.3 162.7 686 154.2C731.7 145.7 777.3 111.3 823 99.3C868.7 87.3 914.3 97.7 937.2 102.8L960 108L960 0L937.2 0C914.3 0 868.7 0 823 0C777.3 0 731.7 0 686 0C640.3 0 594.7 0 548.8 0C503 0 457 0 411.2 0C365.3 0 319.7 0 274 0C228.3 0 182.7 0 137 0C91.3 0 45.7 0 22.8 0L0 0Z" stroke-linecap="round" stroke-linejoin="miter" fill="#0d9488"></path></svg>